# xmcd
#
# Track frame offsets: 
#        150
#        14935
#        34084
#        52204
#        81975
#        95955
#        114962
#        126680
#        145382
#
# Disc length: 2393 seconds
#
# Revision: 3
# Processed by: cddbd v1.5.2PL0 Copyright (c) Steve Scherf et al.
# Submitted via: ExactAudioCopy v1.0b4
#
DISCID=8f095709
DTITLE=Eddie Cleanhead Vinson - Mr Cleanhead Is Back In Town (LP)
DYEAR=1900
DGENRE=Blues
TTITLE0=Home Baby
TTITLE1=Meat's Too High
TTITLE2=Somebody's Got To Go
TTITLE3=Somebody Else Has Taken My Place
TTITLE4=Investigation Blues
TTITLE5=If You Were My Buddy
TTITLE6=Old Maid Blues
TTITLE7=That's All
TTITLE8=Travellin'
EXTD=
EXTT0=
EXTT1=
EXTT2=
EXTT3=
EXTT4=
EXTT5=
EXTT6=
EXTT7=
EXTT8=
PLAYORDER=
